:FULLY-SPECIFIED
:FORCE-ALL-JOINTS-BE-3DOF
:DEGREES
238
root 5.57118 15.6572 -25.853 10.3224 22.6648 -5.28553
lfemur -36.5832 31.3028 -4.31167
ltibia 51.21 0 0
lfoot -14.6723 3.26461 0
ltoes 0.0369966 0 0
rfemur -21.9086 -13.5672 4.42352
rtibia 42.6794 0 0
rfoot -22.006 -4.92478 0
rtoes 49.7257 0 0
lowerback 1.25611 -2.13803 1.68596
upperback -0.646151 -2.78674 2.15236
thorax -1.32684 -1.39659 1.32653
lowerneck -11.3718 -2.4413 0.1962
upperneck 1.26269 -3.30367 0.467031
head 2.39351 -1.62626 -0.0630946
lclavicle -5.15715e-15 -8.95565e-15 0
lhumerus -53.4445 -37.299 120.54
lradius 60.9937 0 0
lwrist 18.8987 0 0
lhand 11.3631 15.1291 0
lfingers 7.12502 0 0
lthumb 36.4119 41.2901 0
rclavicle -5.15715e-15 -8.95565e-15 0
rhumerus -36.048 -3.75245 -68.4651
rradius 92.1302 0 0
rwrist -11.8862 0 0
rhand 28.0046 -21.6662 0
rfingers 7.12502 0 0
rthumb 50.6379 -752.46 0
239
root 5.69184 15.697 -25.8403 10.2263 24.6185 -5.05367
lfemur -36.6264 30.6031 -5.34165
ltibia 50.6822 0 0
lfoot -14.9279 2.5778 0
ltoes 4.13236 0 0
rfemur -21.2212 -12.0168 4.21555
rtibia 43.5052 0 0
rfoot -19.7444 -7.2397 0
rtoes 47.785 0 0
lowerback 1.20398 -2.18565 1.55479
upperback -0.67051 -2.85175 2.23292
thorax -1.30997 -1.42744 1.48192
lowerneck -11.2496 -2.83643 0.0541646
upperneck 1.35131 -3.8131 0.492601
head 2.40726 -1.88007 -0.0573491
lclavicle -1.04166e-14 -7.34108e-15 0
lhumerus -53.3507 -36.9894 120.518
lradius 61.0582 0 0
lwrist 18.9217 0 0
lhand 10.9208 14.9346 0
lfingers 7.12502 0 0
lthumb 35.9924 41.194 0
rclavicle -1.04166e-14 -7.34108e-15 0
rhumerus -36.5509 -4.27624 -68.1049
rradius 88.2326 0 0
rwrist -7.41119 0 0
rhand 23.8848 -20.1228 0
rfingers 7.12502 0 0
rthumb 46.8548 -752.669 0
240
root 5.81665 15.7381 -25.8272 10.1267 26.6381 -4.81198
lfemur -36.6646 29.8758 -6.40466
ltibia 50.1324 0 0
lfoot -15.1939 1.86305 0
ltoes 8.3725 0 0
rfemur -20.5129 -10.4124 3.99938
rtibia 44.3652 0 0
rfoot -17.3957 -9.62797 0
rtoes 45.7658 0 0
lowerback 1.15048 -2.23492 1.41786
upperback -0.695225 -2.91905 2.31521
thorax -1.29226 -1.45938 1.64228
lowerneck -11.1238 -3.24519 -0.0922809
upperneck 1.44338 -4.34023 0.519408
head 2.42172 -2.14267 -0.0513861
lclavicle -1.58602e-14 -5.69279e-15 0
lhumerus -53.2533 -36.6713 120.494
lradius 61.1235 0 0
lwrist 18.9448 0 0
lhand 10.4662 14.7334 0
lfingers 7.12502 0 0
lthumb 35.5612 41.0936 0
rclavicle -1.58602e-14 -5.69279e-15 0
rhumerus -37.0711 -4.80453 -67.7299
rradius 84.1958 0 0
rwrist -2.7614 0 0
rhand 19.6417 -18.5265 0
rfingers 7.12502 0 0
rthumb 42.9514 -752.835 0
241
root 5.94397 15.7801 -25.8139 10.0249 28.6971 -4.5637
lfemur -36.6981 29.1309 -7.48692
ltibia 49.5684 0 0
lfoot -15.4661 1.12998 0
ltoes 12.7006 0 0
rfemur -19.7935 -8.77578 3.77795
rtibia 45.2485 0 0
rfoot -14.9895 -12.0551 0
rtoes 43.69 0 0
lowerback 1.09645 -2.28514 1.277
upperback -0.720003 -2.98768 2.39823
thorax -1.27403 -1.49193 1.8056
lowerneck -10.9959 -3.66221 -0.241349
upperneck 1.5376 -4.87808 0.547013
head 2.43669 -2.41061 -0.0452873
lclavicle -2.13909e-14 -4.03284e-15 0
lhumerus -53.1534 -36.3488 120.468
lradius 61.189 0 0
lwrist 18.9678 0 0
lhand 10.0051 14.528 0
lfingers 7.12502 0 0
lthumb 35.1238 40.9905 0
rclavicle -2.13909e-14 -4.03284e-15 0
rhumerus -37.6018 -5.33174 -67.3459
rradius 80.074 0 0
rwrist 1.99785 0 0
rhand 15.3298 -16.8982 0
rfingers 7.12502 0 0
rthumb 38.979 -752.964 0
242
root 6.07214 15.8223 -25.8004 9.92251 30.7689 -4.31205
lfemur -36.7269 28.3783 -8.57467
ltibia 48.998 0 0
lfoot -15.7406 0.388203 0
ltoes 17.0599 0 0
rfemur -19.0729 -7.12877 3.55419
rtibia 46.1443 0 0
rfoot -12.5554 -14.4867 0
rtoes 41.5796 0 0
lowerback 1.0427 -2.33561 1.13403
upperback -0.74455 -3.05667 2.48101
thorax -1.25561 -1.52465 1.96987
lowerneck -10.8675 -4.08212 -0.391251
upperneck 1.63271 -5.41971 0.574978
head 2.45194 -2.68042 -0.039134
lclavicle -2.69116e-14 -2.38332e-15 0
lhumerus -53.052 -36.0258 120.441
lradius 61.2539 0 0
lwrist 18.9908 0 0
lhand 9.5434 14.321 0
lfingers 7.12502 0 0
lthumb 34.6858 40.8859 0
rclavicle -2.69116e-14 -2.38332e-15 0
rhumerus -38.136 -5.85227 -66.9585
rradius 75.9213 0 0
rwrist 6.80123 0 0
rhand 11.0037 -15.2587 0
rfingers 7.12502 0 0
rthumb 34.9889 -753.061 0
243
root 6.19952 15.8643 -25.7871 9.82085 32.8269 -4.06027
lfemur -36.7512 27.6283 -9.65414
ltibia 48.429 0 0
lfoot -16.0132 -0.352657 0
ltoes 21.3935 0 0
rfemur -18.3607 -5.49319 3.33104
rtibia 47.0417 0 0
rfoot -10.123 -16.8881 0
rtoes 39.4564 0 0
lowerback 0.990051 -2.38561 0.990766
upperback -0.768575 -3.12507 2.56256
thorax -1.23735 -1.55707 2.13308
lowerneck -10.7402 -4.49953 -0.5402
upperneck 1.72743 -5.95815 0.602865
head 2.46724 -2.94864 -0.0330079
lclavicle -3.23253e-14 -7.66324e-16 0
lhumerus -52.9504 -35.7062 120.413
lradius 61.3175 0 0
lwrist 19.0139 0 0
lhand 9.08683 14.1152 0
lfingers 7.12502 0 0
lthumb 34.2527 40.7811 0
rclavicle -3.23253e-14 -7.66324e-16 0
rhumerus -38.6668 -6.36051 -66.5736
rradius 71.7918 0 0
rwrist 11.5834 0 0
rhand 6.71792 -13.6289 0
rfingers 7.12502 0 0
rthumb 31.0323 -753.13 0
244
root 6.32444 15.9055 -25.774 9.72141 34.8445 -3.8116
lfemur -36.7711 26.8909 -10.7116
ltibia 47.8691 0 0
lfoot -16.2799 -1.08298 0
ltoes 25.6447 0 0
rfemur -17.6667 -3.89084 3.11143
rtibia 47.9298 0 0
rfoot -7.72215 -19.225 0
rtoes 37.3425 0 0
lowerback 0.939338 -2.43443 0.84902
upperback -0.791785 -3.19189 2.64191
thorax -1.21957 -1.58873 2.29321
lowerneck -10.6156 -4.90908 -0.686407
upperneck 1.82049 -6.48645 0.630234
head 2.48237 -3.21181 -0.0269903
lclavicle -3.75349e-14 7.96072e-16 0
lhumerus -52.8496 -35.394 120.384
lradius 61.3791 0 0
lwrist 19.037 0 0
lhand 8.64129 13.913 0
lfingers 7.12502 0 0
lthumb 33.8301 40.6776 0
rclavicle -3.75349e-14 7.96072e-16 0
rhumerus -39.1874 -6.85088 -66.1969
rradius 67.7396 0 0
rwrist 16.2791 0 0
rhand 2.5269 -12.0298 0
rfingers 7.12502 0 0
rthumb 27.1607 -753.177 0
245
root 6.44525 15.9454 -25.7613 9.62565 36.7952 -3.56925
lfemur -36.7867 26.1761 -11.7332
ltibia 47.3261 0 0
lfoot -16.5366 -1.79316 0
ltoes 29.7566 0 0
rfemur -17.0007 -2.34354 2.89829
rtibia 48.7979 0 0
rfoot -5.38232 -21.4629 0
rtoes 35.2596 0 0
lowerback 0.891381 -2.48139 0.710611
upperback -0.813888 -3.25618 2.71805
thorax -1.2026 -1.61917 2.44826
lowerneck -10.4953 -5.30538 -0.828085
upperneck 1.91062 -6.99765 0.656648
head 2.49712 -3.46646 -0.0211629
lclavicle -4.24433e-14 2.28178e-15 0
lhumerus -52.751 -35.0933 120.355
lradius 61.4379 0 0
lwrist 19.0601 0 0
lhand 8.21263 13.7172 0
lfingers 7.12502 0 0
lthumb 33.4235 40.5767 0
rclavicle -4.24433e-14 2.28178e-15 0
rhumerus -39.6907 -7.31777 -65.8342
rradius 63.819 0 0
rwrist 20.8228 0 0
rhand -1.51481 -10.4822 0
rfingers 7.12502 0 0
rthumb 23.4254 -753.207 0
246
root 6.5603 15.9833 -25.7493 9.535 38.6523 -3.33646
lfemur -36.7982 25.4941 -12.7052
ltibia 46.8079 0 0
lfoot -16.7792 -2.47355 0
ltoes 33.6724 0 0
rfemur -16.3725 -0.873108 2.69457
rtibia 49.6351 0 0
rfoot -3.1332 -23.5672 0
rtoes 33.2298 0 0
lowerback 0.847007 -2.52576 0.577358
upperback -0.834591 -3.31698 2.79002
thorax -1.18678 -1.64793 2.59621
lowerneck -10.3809 -5.68306 -0.963446
upperneck 1.99653 -7.48479 0.681667
head 2.51125 -3.70914 -0.0156071
lclavicle -4.69534e-14 3.66873e-15 0
lhumerus -52.6556 -34.8079 120.326
lradius 61.4931 0 0
lwrist 19.0833 0 0
lhand 7.80667 13.5303 0
lfingers 7.12502 0 0
lthumb 33.0384 40.4797 0
rclavicle -4.69534e-14 3.66873e-15 0
rhumerus -40.17 -7.75559 -65.4912
rradius 60.0839 0 0
rwrist 25.1494 0 0
rhand -5.35268 -9.00703 0
rfingers 7.12502 0 0
rthumb 19.8777 -753.226 0
247
root 6.66793 16.0189 -25.7381 9.45093 40.3892 -3.11646
lfemur -36.8056 24.8548 -13.6139
ltibia 46.3221 0 0
lfoot -17.0036 -3.11456 0
ltoes 37.3353 0 0
rfemur -15.7917 0.498649 2.50318
rtibia 50.4305 0 0
rfoot -1.00442 -25.5036 0
rtoes 31.275 0 0
lowerback 0.807038 -2.56684 0.451077
upperback -0.853601 -3.37331 2.85683
thorax -1.17243 -1.67456 2.73506
lowerneck -10.2739 -6.03674 -1.0907
upperneck 2.07695 -7.94091 0.704855
head 2.52455 -3.93638 -0.0104044
lclavicle -5.09682e-14 4.93482e-15 0
lhumerus -52.5645 -34.5418 120.296
lradius 61.544 0 0
lwrist 19.1066 0 0
lhand 7.42927 13.355 0
lfingers 7.12502 0 0
lthumb 32.6804 40.388 0
rclavicle -5.09682e-14 4.93482e-15 0
rhumerus -40.6183 -8.15874 -65.1737
rradius 56.5886 0 0
rwrist 29.1935 0 0
rhand -8.93221 -7.62515 0
rfingers 7.12502 0 0
rthumb 16.5688 -753.238 0
